<svg width="24" height="24" viewBox="0 0 24 24" fill="none" xmlns="http://www.w3.org/2000/svg">
<path d="M19.6101 11.3185C19.5673 11.2879 19.519 11.266 19.4678 11.2542C19.4166 11.2423 19.3636 11.2406 19.3117 11.2492C19.2599 11.2579 19.2103 11.2766 19.1657 11.3045C19.1211 11.3323 19.0825 11.3686 19.052 11.4114L17.972 12.9252L15.9615 11.5516C15.9489 11.543 15.9361 11.5347 15.9232 11.5265C15.7278 11.3817 13.5349 9.75943 11.8676 8.6431C11.9205 8.47054 11.8657 8.27347 11.712 8.17427C11.6641 8.14306 11.61 8.12249 11.5535 8.11394C11.4969 8.10539 11.4392 8.10905 11.3842 8.12468C11.3292 8.14032 11.2782 8.16756 11.2346 8.20457C11.191 8.24159 11.1558 8.28751 11.1315 8.33926L9.77829 10.849C9.70998 10.9754 9.58241 11.0214 9.51247 11.0375C9.3742 11.069 9.21723 11.0449 9.08165 10.9715L9.03798 10.9478C8.90195 10.8741 8.79577 10.7556 8.74661 10.6227C8.72166 10.5553 8.69003 10.4231 8.7582 10.2967L10.0679 7.86938C10.0686 7.86799 10.0698 7.86692 10.0713 7.86641L11.6582 7.27208C11.7605 7.23377 11.8696 7.21683 11.9787 7.22233L14.6808 7.35896L14.6817 7.35911L16.4819 7.68033C16.5366 7.68993 16.5926 7.68807 16.6465 7.67489C16.7004 7.66171 16.751 7.63748 16.795 7.60374C16.8391 7.57 16.8757 7.52749 16.9024 7.47888C16.9292 7.43028 16.9456 7.37665 16.9506 7.32139C16.9702 7.10902 16.8039 6.92339 16.5942 6.88597L14.7975 6.56534L14.7463 6.55955L11.7711 6.40926C11.7166 6.40681 11.6621 6.41524 11.6109 6.43406L9.658 7.16531C9.58226 7.19367 9.51603 7.24387 9.4694 7.3101C9.44311 7.34738 9.41891 7.38629 9.39693 7.42712L9.35772 7.49975C8.62172 7.45208 7.44198 7.29109 7.42921 7.28931C7.37709 7.28208 7.32405 7.28522 7.27315 7.29855C7.22224 7.31188 7.17448 7.33514 7.13259 7.36699C7.09071 7.39884 7.05553 7.43866 7.02909 7.48415C7.00264 7.52964 6.98544 7.57991 6.97849 7.63207C6.94849 7.85156 6.29283 7.96621 7.3205 8.08368C7.36609 8.08887 8.21719 8.2056 8.9416 8.27094L8.05427 9.91566C7.89492 10.2109 7.87384 10.5701 7.99621 10.9015C8.11368 11.2191 8.34847 11.4863 8.65721 11.6533L8.70072 11.677C8.91132 11.792 9.14729 11.8528 9.38727 11.8537C9.4893 11.8537 9.59117 11.8424 9.69112 11.8194C10.0346 11.7405 10.323 11.5261 10.4824 11.2308L11.4933 9.35727C13.2044 10.5072 15.4369 12.1638 15.4608 12.1816C15.4712 12.1892 15.4817 12.1964 15.4928 12.203L17.8448 13.8089C17.8924 13.8415 17.933 13.8831 17.9644 13.9315C17.9959 13.9798 18.0174 14.0339 18.0277 14.0906C18.0387 14.1472 18.0384 14.2055 18.0268 14.2619C18.0152 14.3184 17.9926 14.372 17.9601 14.4197L17.9358 14.4555C17.9034 14.5032 17.8618 14.5439 17.8136 14.5755C17.7654 14.6071 17.7115 14.6289 17.6548 14.6396C17.5982 14.6504 17.54 14.6498 17.4836 14.6381C17.4272 14.6263 17.3736 14.6035 17.326 14.5711L14.9934 12.9776C14.95 12.9479 14.9012 12.927 14.8498 12.9162C14.7983 12.9054 14.7452 12.9049 14.6936 12.9147C14.6419 12.9245 14.5927 12.9444 14.5488 12.9733C14.5048 13.0022 14.467 13.0395 14.4376 13.083C14.3777 13.1708 14.3552 13.2788 14.3749 13.3832C14.3946 13.4877 14.455 13.58 14.5427 13.6399L16.3594 14.8808C16.3803 14.904 16.4033 14.9258 16.4302 14.9443C16.4778 14.9768 16.5185 15.0184 16.5499 15.0668C16.5813 15.1152 16.6028 15.1693 16.6132 15.226C16.6242 15.2826 16.6239 15.3408 16.6123 15.3973C16.6007 15.4538 16.578 15.5074 16.5456 15.5551L16.5213 15.5909C16.3849 15.7913 16.1115 15.8429 15.903 15.7009L13.8744 14.3899C13.8303 14.3613 13.7809 14.3418 13.7292 14.3323C13.6775 14.3229 13.6245 14.3237 13.5731 14.3348C13.5217 14.3459 13.473 14.3671 13.4298 14.397C13.3866 14.427 13.3498 14.4652 13.3214 14.5094C13.2639 14.5988 13.2441 14.7073 13.2665 14.8112C13.2889 14.915 13.3516 15.0058 13.4408 15.0635L15.1017 16.1368C15.1244 16.1635 15.1495 16.1888 15.1799 16.2094C15.2275 16.2419 15.2682 16.2836 15.2996 16.3319C15.331 16.3803 15.3525 16.4344 15.3629 16.4911C15.3739 16.5477 15.3736 16.6059 15.362 16.6624C15.3504 16.7189 15.3278 16.7725 15.2953 16.8202L15.271 16.856C15.2384 16.9037 15.1967 16.9445 15.1483 16.9761C15.1 17.0077 15.0458 17.0295 14.989 17.0401C14.9322 17.0507 14.8739 17.0501 14.8174 17.0381C14.7608 17.0262 14.7072 17.0032 14.6596 16.9705L13.0248 15.8662C12.9813 15.8367 12.9323 15.8162 12.8808 15.8057C12.8293 15.7952 12.7762 15.795 12.7246 15.805C12.673 15.8151 12.6239 15.8352 12.5801 15.8643C12.5363 15.8934 12.4987 15.9308 12.4694 15.9745C12.4101 16.0626 12.3881 16.1707 12.4084 16.275C12.4286 16.3793 12.4894 16.4713 12.5774 16.5309L13.6814 17.2767C13.7059 17.3076 13.7336 17.3364 13.7679 17.3599C13.8155 17.3924 13.8562 17.4341 13.8876 17.4824C13.919 17.5308 13.9405 17.5849 13.9509 17.6416C13.9619 17.6982 13.9616 17.7564 13.95 17.8129C13.9384 17.8694 13.9157 17.923 13.8833 17.9707L13.859 18.0065C13.7225 18.2067 13.4491 18.2586 13.251 18.1234L11.7872 17.1123L12.092 16.6785C12.4372 16.1874 12.3193 15.5065 11.829 15.1605L11.7364 15.0951C11.6262 15.018 11.5026 14.9622 11.3719 14.9305C11.4643 14.4771 11.2899 13.9904 10.8888 13.7073L10.7867 13.6352C10.5639 13.4775 10.2935 13.4015 10.0213 13.42C10.0198 13.4102 10.0193 13.4002 10.0175 13.3904C9.99044 13.2299 9.93178 13.0763 9.84496 12.9385C9.75814 12.8008 9.64488 12.6816 9.51172 12.5879L9.47608 12.5627C9.04541 12.2588 8.48673 12.2705 8.07284 12.5481C8.00259 12.4471 7.91735 12.3543 7.81131 12.2794L7.71865 12.2141C7.60216 12.1315 7.4704 12.0729 7.33104 12.0417C7.19168 12.0105 7.0475 12.0073 6.90691 12.0323C6.76605 12.0563 6.63136 12.108 6.51065 12.1844C6.38994 12.2608 6.28561 12.3605 6.20372 12.4776L6.01794 12.7419L5.21823 11.5583C4.19828 9.97373 4.84563 11.3271 4.66267 11.4511C4.57476 11.5108 4.51412 11.6029 4.49404 11.7072C4.47397 11.8116 4.4961 11.9196 4.55559 12.0077L5.5252 13.4429L5.03408 14.1414C4.95164 14.2583 4.89316 14.3904 4.86202 14.53C4.83087 14.6696 4.82767 14.814 4.85261 14.9548C4.87646 15.0958 4.92803 15.2306 5.00432 15.3516C5.08061 15.4725 5.18012 15.5771 5.29709 15.6593L5.3899 15.7248C5.54094 15.8308 5.71672 15.8961 5.90032 15.9145C5.90819 16.2961 6.08923 16.6693 6.42396 16.9054L6.45901 16.9302C6.66638 17.0773 6.91435 17.1562 7.16858 17.1561C7.24001 17.1561 7.31218 17.1499 7.38421 17.1374C7.44939 17.1257 7.51355 17.1088 7.57608 17.0869C7.66193 17.2978 7.80638 17.4797 7.99235 17.611L8.09452 17.6832C8.29503 17.8253 8.53472 17.9016 8.78047 17.9015C8.81537 17.9015 8.85042 17.8954 8.88547 17.8924C8.94324 18.1453 9.08684 18.3795 9.31465 18.5404L9.40762 18.606C9.59017 18.7351 9.80833 18.8044 10.0319 18.8043C10.2066 18.8046 10.3787 18.7627 10.5337 18.6824C10.6888 18.602 10.8221 18.4854 10.9225 18.3426L11.3265 17.768L12.7986 18.7848C13.0036 18.9251 13.2463 19.0001 13.4947 19C13.6968 19.0003 13.896 18.9511 14.0747 18.8567C14.2535 18.7623 14.4064 18.6255 14.5201 18.4584L14.5445 18.4226C14.6628 18.2488 14.7349 18.0478 14.7537 17.8384C14.8045 17.8448 14.8556 17.8495 14.9064 17.8495C15.1085 17.8498 15.3077 17.8006 15.4865 17.7062C15.6652 17.6118 15.8181 17.475 15.9318 17.3079L15.9562 17.2721C16.0946 17.069 16.1694 16.8293 16.1709 16.5835C16.3706 16.5816 16.5669 16.5315 16.743 16.4373C16.9191 16.3432 17.0698 16.2078 17.1823 16.0428L17.2066 16.007C17.3224 15.8374 17.394 15.6415 17.4148 15.4372C17.4659 15.4437 17.5173 15.4487 17.5693 15.4487C17.6471 15.4487 17.7254 15.4415 17.8035 15.4266C17.9635 15.3969 18.1161 15.3356 18.2523 15.2465C18.3885 15.1573 18.5056 15.042 18.5969 14.9073L18.6213 14.8715C18.7132 14.7369 18.7776 14.5855 18.8107 14.4259C18.8437 14.2663 18.8449 14.1017 18.8141 13.9417C18.7794 13.7582 18.7037 13.5849 18.5928 13.4347L19.7032 11.8783C19.7648 11.7916 19.7896 11.6841 19.7721 11.5792C19.7547 11.4743 19.6964 11.3805 19.6101 11.3185V11.3185ZM6.24174 15.0074C6.19855 15.0647 6.13525 15.1035 6.06457 15.1161C6.02749 15.1228 5.98944 15.122 5.95265 15.1138C5.91586 15.1057 5.88106 15.0903 5.85028 15.0686L5.75746 15.0031C5.72668 14.9813 5.70052 14.9536 5.68048 14.9217C5.66045 14.8898 5.64694 14.8542 5.64073 14.817C5.63404 14.7799 5.63478 14.7418 5.64292 14.7049C5.65105 14.6681 5.66641 14.6333 5.68811 14.6024L6.85775 12.9385C6.87943 12.9077 6.907 12.8815 6.93886 12.8614C6.97072 12.8414 7.00625 12.8278 7.04338 12.8215C7.08049 12.8147 7.11858 12.8154 7.15541 12.8236C7.19224 12.8317 7.22706 12.8472 7.25783 12.869L7.3505 12.9344C7.40915 12.9761 7.45001 13.0383 7.465 13.1087C7.47998 13.1791 7.46801 13.2526 7.43143 13.3145L6.24174 15.0074V15.0074ZM7.53093 16.1678C7.49785 16.215 7.45572 16.2551 7.407 16.2858C7.35828 16.3166 7.30394 16.3373 7.24714 16.3469C7.19039 16.3569 7.13223 16.3557 7.07598 16.3431C7.01974 16.3306 6.96652 16.3071 6.91938 16.274L6.88433 16.2492C6.78923 16.1819 6.72467 16.0796 6.70477 15.9648C6.68487 15.85 6.71126 15.732 6.77815 15.6366L6.88923 15.4784C6.89399 15.4721 6.90008 15.4672 6.90453 15.4606L8.07417 13.7967C8.07863 13.7905 8.081 13.7834 8.08516 13.7771L8.40371 13.324C8.43682 13.2769 8.47897 13.2368 8.52772 13.206C8.57646 13.1753 8.63082 13.1545 8.68766 13.1449C8.7135 13.1405 8.73919 13.1383 8.76488 13.1383C8.85443 13.1383 8.94116 13.1654 9.01467 13.2174L9.05046 13.2427C9.14553 13.31 9.21007 13.4123 9.22994 13.5271C9.24981 13.6419 9.2234 13.7599 9.15649 13.8553L7.53093 16.1678V16.1678ZM9.10927 16.9305C9.07921 16.9733 9.04098 17.0096 8.99677 17.0375C8.95257 17.0654 8.90328 17.0842 8.85176 17.0929C8.80038 17.1021 8.74768 17.1011 8.69672 17.0898C8.64575 17.0785 8.59754 17.0572 8.55489 17.0271L8.45257 16.9549C8.36637 16.8938 8.30787 16.8011 8.28983 16.697C8.2718 16.5929 8.29571 16.4859 8.35634 16.3993L9.77116 14.3865C9.80121 14.3437 9.83938 14.3073 9.8835 14.2793C9.92761 14.2514 9.97681 14.2323 10.0283 14.2234C10.0797 14.2144 10.1325 14.2157 10.1835 14.2271C10.2344 14.2385 10.2827 14.2599 10.3254 14.2899L10.4277 14.3621C10.5139 14.4232 10.5724 14.5159 10.5905 14.62C10.6085 14.7241 10.5846 14.8312 10.5239 14.9177V14.9175L9.10927 16.9305V16.9305ZM11.4377 16.2164L10.2681 17.8802C10.2243 17.9425 10.1575 17.9848 10.0825 17.9979C10.0075 18.011 9.93041 17.9937 9.86814 17.9499L9.77532 17.8843C9.71315 17.8402 9.67095 17.7733 9.65792 17.6982C9.6449 17.6231 9.66212 17.5459 9.70582 17.4834L10.8755 15.8196C10.8972 15.7888 10.9248 15.7626 10.9567 15.7425C10.9885 15.7224 11.0241 15.7088 11.0612 15.7025C11.0983 15.6958 11.1364 15.6965 11.1732 15.7047C11.21 15.7128 11.2448 15.7283 11.2755 15.7501L11.3682 15.8154C11.4304 15.8595 11.4726 15.9264 11.4856 16.0016C11.4986 16.0767 11.4814 16.1539 11.4377 16.2164V16.2164Z" fill="#524D48"/>
<path d="M23.0979 10.9827L18.3783 4.07383C18.3658 4.05544 18.3498 4.03971 18.3312 4.02754C18.3125 4.01537 18.2917 4.00699 18.2698 4.00289C18.2479 3.99879 18.2255 3.99905 18.2037 4.00366C18.1819 4.00826 18.1613 4.01712 18.143 4.02973L15.6672 5.72761C15.6301 5.75307 15.6047 5.7922 15.5964 5.83641C15.5881 5.88061 15.5977 5.9263 15.6231 5.96344L20.3428 12.8723C20.3553 12.8907 20.3714 12.9064 20.39 12.9186C20.4086 12.9308 20.4295 12.9391 20.4513 12.9432C20.4732 12.9473 20.4957 12.9471 20.5174 12.9425C20.5392 12.9379 20.5598 12.929 20.5782 12.9164L23.0539 11.2185C23.091 11.193 23.1164 11.1539 23.1247 11.1097C23.1329 11.0655 23.1233 11.0198 23.0979 10.9827V10.9827Z" fill="#FFBF24"/>
<path d="M8.02995 5.85327L5.43167 4.35038C5.41242 4.33921 5.39116 4.33196 5.36911 4.32904C5.34705 4.32612 5.32464 4.32758 5.30315 4.33335C5.28166 4.33912 5.26153 4.34908 5.2439 4.36265C5.22628 4.37623 5.21151 4.39315 5.20044 4.41245L1.02249 11.663C1.00019 11.702 0.994181 11.7482 1.00578 11.7916C1.01738 11.835 1.04564 11.872 1.08442 11.8947L3.6827 13.3976C3.70193 13.4088 3.7232 13.4161 3.74527 13.4191C3.76734 13.4221 3.78978 13.4206 3.8113 13.4149C3.83281 13.4091 3.85297 13.3991 3.87061 13.3855C3.88825 13.3719 3.90302 13.355 3.91407 13.3357L8.09203 6.08509C8.11436 6.04608 8.12037 5.99982 8.10874 5.95639C8.09712 5.91297 8.06879 5.8759 8.02995 5.85327V5.85327Z" fill="#FFBF24"/>
<path d="M3.85471 11.1685C3.85479 11.2494 3.83893 11.3296 3.80803 11.4044C3.77713 11.4792 3.7318 11.5472 3.67462 11.6044C3.61745 11.6617 3.54955 11.7072 3.47481 11.7382C3.40006 11.7693 3.31994 11.7853 3.239 11.7854C3.15807 11.7853 3.07794 11.7693 3.0032 11.7382C2.92845 11.7072 2.86056 11.6617 2.80338 11.6044C2.74621 11.5472 2.70088 11.4792 2.66998 11.4044C2.63908 11.3296 2.62321 11.2494 2.62329 11.1685C2.62321 11.0875 2.63908 11.0074 2.66998 10.9326C2.70088 10.8578 2.74621 10.7898 2.80338 10.7325C2.86056 10.6752 2.92845 10.6298 3.0032 10.5987C3.07794 10.5677 3.15807 10.5517 3.239 10.5516C3.31994 10.5517 3.40006 10.5677 3.47481 10.5987C3.54955 10.6298 3.61745 10.6752 3.67462 10.7325C3.7318 10.7898 3.77713 10.8578 3.80803 10.9326C3.83893 11.0074 3.85479 11.0875 3.85471 11.1685V11.1685Z" fill="#524D48"/>
<path d="M21.4431 10.6674C21.4432 10.7483 21.4273 10.8285 21.3964 10.9033C21.3655 10.9781 21.3202 11.0461 21.263 11.1034C21.2058 11.1607 21.1379 11.2061 21.0632 11.2372C20.9884 11.2682 20.9083 11.2842 20.8274 11.2843C20.7464 11.2842 20.6663 11.2682 20.5916 11.2372C20.5168 11.2061 20.4489 11.1607 20.3918 11.1034C20.3346 11.0461 20.2893 10.9781 20.2584 10.9033C20.2275 10.8285 20.2116 10.7483 20.2117 10.6674C20.2116 10.5865 20.2275 10.5063 20.2584 10.4315C20.2893 10.3567 20.3346 10.2887 20.3918 10.2314C20.4489 10.1742 20.5168 10.1287 20.5916 10.0976C20.6663 10.0666 20.7464 10.0506 20.8274 10.0505C20.9083 10.0506 20.9884 10.0666 21.0632 10.0976C21.1379 10.1287 21.2058 10.1742 21.263 10.2314C21.3202 10.2887 21.3655 10.3567 21.3964 10.4315C21.4273 10.5063 21.4432 10.5865 21.4431 10.6674Z" fill="#524D48"/>
</svg>
