<svg width="24" height="24" viewBox="0 0 24 24" fill="none" xmlns="http://www.w3.org/2000/svg">
<path d="M11.0443 20.0777H9.54053V22.9459L10.2924 22.3896L11.0443 22.9459V20.0777Z" fill="#FFBF24"/>
<path d="M18.8357 4.49525V4.50822H17.0447V1H15.8804V1.00035H6.64217C6.29273 1.00035 5.95848 1.04426 5.63918 1.13209C5.31977 1.2198 5.03912 1.35784 4.79714 1.5461C4.55503 1.73425 4.36175 1.97892 4.21705 2.28C4.10353 2.51627 4.03521 2.79154 4.01068 3.10488L4.00309 3.09764V3.22459C3.99897 3.32339 3.99897 3.42232 4.00309 3.52112V17.5902C3.99897 17.689 3.99897 17.7879 4.00309 17.8867V17.9577L4.00753 17.9561C4.02797 18.2756 4.09348 18.5581 4.20572 18.8023C4.34294 19.1009 4.53132 19.3468 4.77086 19.54C5.01039 19.733 5.28975 19.8762 5.60917 19.9691C5.92847 20.0619 6.27276 20.1084 6.64217 20.1084L18.8357 20.1193V20.1225H20V4.49525H18.8357V4.49525ZM5.22003 2.84082C5.30467 2.69793 5.42284 2.57779 5.56432 2.49081C5.70902 2.40041 5.87381 2.33525 6.05834 2.29507C6.25027 2.25416 6.44604 2.234 6.64228 2.23492H15.8805V4.50822H6.64217C6.44748 4.50822 6.25676 4.4893 6.06955 4.45169C5.88245 4.41409 5.71638 4.34997 5.5718 4.25969C5.42901 4.17145 5.30962 4.05006 5.22377 3.90582C5.13641 3.7603 5.09285 3.58208 5.09285 3.3714C5.09273 3.16071 5.13501 2.98377 5.22003 2.84082V2.84082ZM5.5718 18.6253C5.42901 18.5371 5.30962 18.4157 5.22377 18.2714C5.13641 18.1259 5.10569 17.8652 5.10569 17.6545C5.10569 17.6322 5.10371 17.5763 5.10044 17.4982L5.17133 5.43143C5.31167 5.50211 5.45824 5.55966 5.60917 5.60335C5.81834 5.66419 6.0393 5.70308 6.26996 5.72399V18.8492C6.2028 18.8409 6.13596 18.8302 6.06955 18.8172C5.88245 18.7797 5.71638 18.7156 5.5718 18.6253ZM7.44532 18.8737V5.75505L7.43236 5.74268H18.8357V18.8737H7.44532V18.8737Z" fill="#524D48"/>
<path d="M16.8114 12.1408H9.46899V7.46451H16.8114V12.1408ZM10.5201 11.0897H15.7603V8.51561H10.5201V11.0897V11.0897Z" fill="#FFBF24"/>
</svg>
