<svg width="24" height="24" viewBox="0 0 24 24" fill="none" xmlns="http://www.w3.org/2000/svg">
<path d="M11.9996 2C6.48586 2 2 6.48615 2 12.0001C2 17.5143 6.48586 22.0004 11.9996 22.0004C17.5141 22.0004 22 17.5143 22 12.0001C21.9999 6.4863 17.5141 2 11.9996 2V2ZM11.9996 20.2321C7.46063 20.2321 3.76791 16.5391 3.76791 12.0001C3.76791 7.46107 7.46063 3.76805 11.9996 3.76805C16.5386 3.76805 20.2321 7.46107 20.2321 12.0001C20.2321 16.5391 16.5386 20.2321 11.9996 20.2321V20.2321Z" fill="#585857"/>
<path d="M15.0485 15.0509C14.2338 15.866 13.1506 16.315 11.9996 16.315C10.8492 16.315 9.76611 15.8658 8.95136 15.0509C8.89215 14.9917 8.82185 14.9447 8.74448 14.9127C8.6671 14.8806 8.58417 14.8641 8.50042 14.8641C8.41667 14.8641 8.33373 14.8805 8.25635 14.9126C8.17897 14.9446 8.10865 14.9916 8.04942 15.0508C7.99019 15.11 7.9432 15.1803 7.91114 15.2577C7.87907 15.3351 7.86256 15.418 7.86255 15.5017C7.86254 15.5855 7.87902 15.6684 7.91106 15.7458C7.94309 15.8232 7.99006 15.8935 8.04927 15.9527C9.10487 17.0089 10.5082 17.5905 11.9996 17.5905C13.4917 17.5905 14.8944 17.0089 15.9506 15.9527C16.0098 15.8935 16.0568 15.8232 16.0888 15.7458C16.1209 15.6684 16.1373 15.5855 16.1373 15.5017C16.1373 15.418 16.1208 15.3351 16.0887 15.2577C16.0567 15.1803 16.0097 15.11 15.9504 15.0508C15.8912 14.9916 15.8209 14.9446 15.7435 14.9126C15.6661 14.8805 15.5832 14.8641 15.4994 14.8641C15.4157 14.8641 15.3328 14.8806 15.2554 14.9127C15.178 14.9447 15.1077 14.9917 15.0485 15.0509V15.0509Z" fill="#585857"/>
<path d="M11.1652 9.82643C11.1653 9.76363 11.1529 9.70143 11.1289 9.6434C11.1049 9.58537 11.0696 9.53265 11.0252 9.48826C10.9808 9.44386 10.928 9.40866 10.87 9.38467C10.812 9.36068 10.7498 9.34837 10.687 9.34845C10.6241 9.34837 10.5619 9.36068 10.5039 9.38467C10.4459 9.40866 10.3931 9.44386 10.3487 9.48826C10.3043 9.53265 10.269 9.58537 10.245 9.6434C10.221 9.70143 10.2086 9.76363 10.2087 9.82643C10.2087 10.4668 9.6879 10.9879 9.04753 10.9879C8.40716 10.9879 7.88566 10.4668 7.88566 9.82643C7.8857 9.76363 7.87335 9.70143 7.84932 9.6434C7.8253 9.58537 7.79006 9.53265 7.74564 9.48826C7.70122 9.44386 7.64847 9.40866 7.59043 9.38467C7.53239 9.36068 7.47018 9.34837 7.40738 9.34845C7.34462 9.34845 7.28248 9.36081 7.2245 9.38484C7.16653 9.40886 7.11386 9.44408 7.06949 9.48847C7.02513 9.53285 6.98995 9.58555 6.96597 9.64354C6.94198 9.70153 6.92965 9.76368 6.92969 9.82643C6.92969 10.9944 7.87959 11.9443 9.04753 11.9443C10.2153 11.9443 11.1652 10.9944 11.1652 9.82643V9.82643Z" fill="#585857"/>
<path d="M16.5918 9.34845C16.529 9.34837 16.4668 9.36068 16.4088 9.38467C16.3507 9.40866 16.298 9.44386 16.2536 9.48826C16.2091 9.53265 16.1739 9.58537 16.1499 9.6434C16.1259 9.70143 16.1135 9.76363 16.1136 9.82643C16.1136 10.4668 15.5928 10.9879 14.9524 10.9879C14.312 10.9879 13.7913 10.4668 13.7913 9.82643C13.7913 9.76364 13.7789 9.70147 13.7548 9.64347C13.7308 9.58547 13.6955 9.53277 13.6511 9.48839C13.6067 9.444 13.554 9.4088 13.496 9.38479C13.438 9.36078 13.3758 9.34843 13.313 9.34845C13.2502 9.34837 13.188 9.36068 13.1299 9.38467C13.0719 9.40866 13.0192 9.44386 12.9747 9.48826C12.9303 9.53265 12.8951 9.58537 12.8711 9.6434C12.847 9.70143 12.8347 9.76363 12.8347 9.82643C12.8347 10.9944 13.7846 11.9443 14.9526 11.9443C16.1205 11.9443 17.0704 10.9944 17.0704 9.82643C17.0704 9.76362 17.058 9.70143 17.0339 9.6434C17.0099 9.58538 16.9746 9.53267 16.9302 9.48828C16.8857 9.44389 16.833 9.4087 16.7749 9.3847C16.7169 9.36071 16.6546 9.34839 16.5918 9.34845V9.34845Z" fill="#585857"/>
</svg>
