<svg width="24" height="24" viewBox="0 0 24 24" fill="none" xmlns="http://www.w3.org/2000/svg">
<path d="M21.5294 6.10588V4.52941C21.5294 4.23529 21.2941 4 21 4H13.7529C12.9647 4 12.3882 4.2 12.0235 4.61176C11.6471 4.2 11.0706 4 10.2941 4H3C2.70588 4 2.47059 4.23529 2.47059 4.52941V6.11765H2V18.8235H10.7176C10.6941 18.8235 10.6824 18.7765 10.6706 18.7529C10.6941 18.7765 10.7059 18.7882 10.7294 18.7882C10.8471 18.9059 10.9294 19.0353 10.9529 19.0824C11.1529 19.4941 11.5529 19.7647 12 19.7647H12.0118C12.4706 19.7647 12.8706 19.4471 13.0588 19.0235C13.0588 19.0235 13.1059 18.9176 13.2118 18.7882L22 18.7765V6.11765L21.5294 6.10588ZM3.52941 5.05882H10.2941C11.2118 5.05882 11.4941 5.35294 11.4941 6.36471V13.4353C11.4941 13.7294 11.7294 13.9647 12.0235 13.9647C12.3176 13.9647 12.5529 13.7294 12.5529 13.4353V6.34118C12.5529 5.23529 12.9059 5.05882 13.7412 5.05882H20.4588V17.1176C19.0706 17.1059 15.3176 17.0941 14.1176 17.0941C13.0941 17.0941 12.4118 17.5765 12 18C11.5882 17.5765 10.9059 17.0941 9.88235 17.0941C8.68235 17.0941 4.91765 17.1176 3.51765 17.1176L3.52941 5.05882Z" fill="#524D48"/>
</svg>
