<svg width="24" height="24" viewBox="0 0 24 24" fill="none" xmlns="http://www.w3.org/2000/svg">
<path d="M22.9399 7.46808C22.8884 6.29913 22.6993 5.49549 22.4285 4.79912C22.1492 4.05995 21.7194 3.39817 21.1563 2.84802C20.6062 2.28932 19.9401 1.85518 19.2094 1.58019C18.509 1.3094 17.7096 1.12037 16.5407 1.06883C15.363 1.01293 14.9891 1 12.0022 1C9.01526 1 8.64139 1.01293 7.46808 1.06447C6.29913 1.11601 5.49549 1.30521 4.79929 1.57583C4.05995 1.85518 3.39817 2.28495 2.84802 2.84802C2.28932 3.39817 1.85535 4.06431 1.58019 4.79493C1.3094 5.49549 1.12037 6.29477 1.06883 7.46371C1.01293 8.64139 1 9.01526 1 12.0022C1 14.9891 1.01293 15.363 1.06447 16.5363C1.11601 17.7052 1.30521 18.5089 1.576 19.2052C1.85535 19.9444 2.28932 20.6062 2.84802 21.1563C3.39817 21.715 4.06431 22.1492 4.79493 22.4242C5.49549 22.695 6.29477 22.884 7.46388 22.9355C8.63703 22.9872 9.01107 23 11.998 23C14.9849 23 15.3588 22.9872 16.5321 22.9355C17.701 22.884 18.5047 22.695 19.2009 22.4242C20.6794 21.8525 21.8483 20.6836 22.42 19.2052C22.6906 18.5047 22.8798 17.7052 22.9313 16.5363C22.9829 15.363 22.9958 14.9891 22.9958 12.0022C22.9958 9.01526 22.9914 8.64139 22.9399 7.46808ZM20.9587 16.4503C20.9114 17.5248 20.7309 18.105 20.5805 18.4918C20.2108 19.4502 19.4502 20.2108 18.4918 20.5805C18.105 20.7309 17.5206 20.9114 16.4503 20.9586C15.2899 21.0103 14.9419 21.023 12.0065 21.023C9.07117 21.023 8.71879 21.0103 7.5626 20.9586C6.48816 20.9114 5.90797 20.7309 5.52118 20.5805C5.04423 20.4042 4.61009 20.1249 4.25771 19.7596C3.8924 19.4028 3.61305 18.9731 3.43678 18.4961C3.28636 18.1093 3.10589 17.5248 3.05871 16.4547C3.00701 15.2943 2.99425 14.9461 2.99425 12.0107C2.99425 9.07536 3.00701 8.72298 3.05871 7.56696C3.10589 6.49253 3.28636 5.91234 3.43678 5.52554C3.61305 5.04843 3.8924 4.61446 4.26208 4.26191C4.61865 3.8966 5.04843 3.61725 5.52554 3.44114C5.91234 3.29072 6.49689 3.11025 7.56696 3.06291C8.72735 3.01137 9.07553 2.99844 12.0107 2.99844C14.9505 2.99844 15.2985 3.01137 16.4547 3.06291C17.5291 3.11025 18.1093 3.29072 18.4961 3.44114C18.9731 3.61725 19.4072 3.8966 19.7596 4.26191C20.1249 4.61865 20.4042 5.04843 20.5805 5.52554C20.7309 5.91234 20.9114 6.49673 20.9587 7.56696C21.0103 8.72735 21.0232 9.07536 21.0232 12.0107C21.0232 14.9461 21.0103 15.2899 20.9587 16.4503Z" fill="white"/>
<path d="M12.0023 6.35068C8.88229 6.35068 6.35083 8.88197 6.35083 12.0022C6.35083 15.1224 8.88229 17.6537 12.0023 17.6537C15.1226 17.6537 17.6539 15.1224 17.6539 12.0022C17.6539 8.88197 15.1226 6.35068 12.0023 6.35068ZM12.0023 15.6682C9.97821 15.6682 8.33635 14.0265 8.33635 12.0022C8.33635 9.97789 9.97821 8.33619 12.0023 8.33619C14.0266 8.33619 15.6683 9.97789 15.6683 12.0022C15.6683 14.0265 14.0266 15.6682 12.0023 15.6682V15.6682Z" fill="white"/>
<path d="M19.1968 6.12723C19.1968 6.85583 18.606 7.4466 17.8772 7.4466C17.1486 7.4466 16.5579 6.85583 16.5579 6.12723C16.5579 5.39846 17.1486 4.80786 17.8772 4.80786C18.606 4.80786 19.1968 5.39846 19.1968 6.12723V6.12723Z" fill="white"/>
</svg>
