<svg width="24" height="24" viewBox="0 0 24 24" fill="none" xmlns="http://www.w3.org/2000/svg">
<path d="M17.255 11.4703C15.2491 11.4703 13.5143 12.094 12.4903 13.06V12.2559C12.4903 10.2028 9.96675 8.59451 6.74514 8.59451C3.52353 8.59451 1 10.2028 1 12.2559V17.8475L2.50145 18.0032C3.90649 18.1486 5.3181 18.2214 6.73064 18.2212C8.1088 18.2212 9.48766 18.1521 10.8565 18.0138L11.5097 17.9477V20.7231L13.0034 20.8782C14.4107 21.024 15.8246 21.097 17.2394 21.0969C18.6156 21.0969 19.9922 21.0279 21.3588 20.89L23 20.7243V15.1316C23.0001 13.0786 20.4766 11.4703 17.255 11.4703V11.4703ZM11.5048 16.9578L10.7576 17.0332C10.4339 17.0658 10.1095 17.0941 9.78477 17.1189V13.4644H9.42644V17.1424C7.64085 17.2625 5.84922 17.263 4.06356 17.144V13.4644H3.70523V17.1206C3.33736 17.0931 2.96989 17.0605 2.60292 17.0228L1.98534 16.9589V12.2558C1.98534 10.8053 4.16489 9.57986 6.745 9.57986C9.3251 9.57986 11.5047 10.8053 11.5047 12.2558V16.9578H11.5048ZM22.0147 19.8334L21.2601 19.9094C20.9388 19.9419 20.6169 19.9698 20.2948 19.9944V16.306H19.9364V20.0181C18.1509 20.1381 16.3592 20.1387 14.5736 20.0198V16.306H14.2152V19.9964C13.8448 19.9688 13.4747 19.9359 13.1052 19.8979L12.4953 19.8347V15.1316C12.4953 13.6811 14.6749 12.4558 17.255 12.4558C19.8351 12.4558 22.0147 13.6811 22.0147 15.1316V19.8334V19.8334Z" fill="#524D48"/>
<path d="M17.2551 10.7055C18.8662 10.7055 20.1769 9.39494 20.1769 7.78371C20.1769 6.17248 18.8662 4.86188 17.2551 4.86188C15.644 4.86188 14.3333 6.17248 14.3333 7.78371C14.3333 9.39494 15.644 10.7055 17.2551 10.7055ZM17.2551 5.8475C18.3228 5.8475 19.1914 6.71617 19.1914 7.78385C19.1914 8.85153 18.3229 9.72019 17.2551 9.72019C16.1873 9.72019 15.3187 8.85153 15.3187 7.78385C15.3187 6.71617 16.1873 5.8475 17.2551 5.8475V5.8475Z" fill="#524D48"/>
<path d="M6.74507 7.84366C8.35616 7.84366 9.6669 6.53306 9.6669 4.92183C9.6669 3.3106 8.35616 2 6.74507 2C5.13398 2 3.82324 3.3106 3.82324 4.92183C3.82324 6.53306 5.13398 7.84366 6.74507 7.84366ZM6.74507 2.98562C7.81275 2.98562 8.68142 3.85429 8.68142 4.92197C8.68142 5.98965 7.81289 6.85818 6.74507 6.85818C5.67725 6.85818 4.80873 5.98951 4.80873 4.92183C4.80873 3.85415 5.67739 2.98562 6.74507 2.98562V2.98562Z" fill="#524D48"/>
</svg>
