<svg width="24" height="24" viewBox="0 0 24 24" fill="none" xmlns="http://www.w3.org/2000/svg">
<path d="M11.9769 14.1362C10.7875 14.1362 9.8291 13.1778 9.8291 11.9884C9.8291 10.7991 10.7875 9.84064 11.9769 9.84064C13.1663 9.84064 14.1247 10.7991 14.1247 11.9884C14.1247 13.1778 13.1663 14.1362 11.9769 14.1362ZM11.9769 11.3418C11.6189 11.3418 11.3187 11.642 11.3187 12C11.3187 12.358 11.6189 12.6582 11.9769 12.6582C12.3349 12.6582 12.6351 12.358 12.6351 12C12.6351 11.642 12.3349 11.3418 11.9769 11.3418Z" fill="#FFBF24"/>
<path d="M13.0046 3.48961V5.37182C14.067 5.54503 15.037 5.93764 15.8684 6.54965L17.2656 5.15242L18.7206 6.60739L17.3349 7.99307C17.9815 8.84758 18.4203 9.86374 18.5935 10.9723H20.4758V13.0393H18.5935C18.4203 14.1016 18.0277 15.0716 17.4157 15.903L18.709 17.1963L17.254 18.6513L15.9723 17.3695C15.1178 18.0162 14.1016 18.455 12.9931 18.6166V20.4988H10.9261V18.6166C9.81755 18.4434 8.78984 18.0046 7.94688 17.3695L6.67667 18.6513L5.22171 17.1963L6.51501 15.903C5.9261 15.0716 5.51039 14.0901 5.33718 13.0393H3.44342V10.9723H5.32564C5.49885 9.86374 5.93764 8.85912 6.5843 7.99307L5.19861 6.60739L6.65358 5.15242L8.05081 6.54965C8.88222 5.96074 9.86374 5.54503 10.9145 5.38337V3.50115H13.0046V3.48961ZM13.0046 2H10.9376C10.1062 2 9.44804 2.66975 9.44804 3.48961V4.20554C9.05543 4.33256 8.67436 4.49423 8.3164 4.66744L7.75058 4.10162C7.46189 3.81293 7.09238 3.66282 6.69977 3.66282C6.29561 3.66282 5.9261 3.81293 5.64896 4.10162L4.20554 5.55658C3.62818 6.13395 3.62818 7.08083 4.20554 7.6582L4.74827 8.20092C4.52887 8.61663 4.34411 9.04388 4.20554 9.48268H3.48961C2.6582 9.48268 2 10.1524 2 10.9723V13.0277C2 13.8591 2.66975 14.5173 3.48961 14.5173H4.20554C4.33256 14.9099 4.49423 15.291 4.66744 15.649L4.20554 16.1109C3.62818 16.6882 3.62818 17.6351 4.20554 18.2125L5.66051 19.6674C5.94919 19.9561 6.33025 20.1062 6.71132 20.1062C7.08083 20.1062 7.47344 19.9677 7.76212 19.6674L8.20092 19.2286C8.61663 19.448 9.04388 19.6328 9.48268 19.7714V20.4873C9.48268 21.3187 10.1524 21.9769 10.9723 21.9769H13.0277C13.8591 21.9769 14.5173 21.3072 14.5173 20.4873V19.7714C14.9561 19.6328 15.3834 19.448 15.7991 19.2286L16.2379 19.6674C16.5266 19.9561 16.9076 20.1062 17.2887 20.1062C17.6697 20.1062 18.0508 19.9677 18.3395 19.6674L19.7945 18.2125C20.0831 17.9238 20.2333 17.5543 20.2333 17.1617C20.2333 16.7575 20.0831 16.388 19.7945 16.1109L19.3326 15.649C19.5173 15.2794 19.6674 14.8984 19.7945 14.5173H20.5104C21.3418 14.5173 22 13.8476 22 13.0277V10.9723C22 10.1409 21.3303 9.48268 20.5104 9.48268H19.7945C19.6559 9.04388 19.4711 8.61663 19.2517 8.20092L19.7945 7.6582C20.3718 7.08083 20.3718 6.13395 19.7945 5.55658L18.3395 4.10162C18.0508 3.81293 17.6813 3.66282 17.2887 3.66282C16.8845 3.66282 16.515 3.81293 16.2379 4.10162L15.6721 4.66744C15.3025 4.48268 14.9215 4.33256 14.5404 4.20554V3.48961C14.4942 2.66975 13.8245 2 13.0046 2Z" fill="#FFBF24"/>
</svg>
